<svg width="22" height="22" viewBox="0 0 22 22" fill="none" xmlns="http://www.w3.org/2000/svg">
<path d="M5.48891 18.8828C5.36667 19.0051 5.24449 19.0539 5.14667 19.0295C5.04891 18.9806 5 18.8828 5 18.6873V3.36059C5 3.1895 5.04891 3.06726 5.14667 3.01834C5.24442 2.96943 5.34225 3.01834 5.48891 3.16501L12.8712 10.5473C12.9445 10.6206 12.969 10.6695 13.0179 10.7429V3.36059C13.0179 3.1895 13.0668 3.06726 13.1645 3.01834C13.2623 2.96943 13.3601 3.01834 13.5068 3.16501L20.8891 10.5473C21.0113 10.6695 21.0846 10.8406 21.0846 11.0117C21.0846 11.1828 21.0113 11.354 20.8891 11.4761L13.5068 18.8584C13.3845 18.9807 13.2624 19.0295 13.1645 19.0051C13.0668 18.9562 13.0179 18.8584 13.0179 18.6628V11.2806C12.9934 11.3539 12.9445 11.4272 12.8712 11.4761L5.48891 18.8828Z" fill="white"/>
</svg>
