<svg width="32" height="32" viewBox="0 0 32 32" fill="none" xmlns="http://www.w3.org/2000/svg">
<path d="M21 16C21 18.7613 18.7615 21 16 21C13.2385 21 11 18.7615 11 16C11 13.2385 13.2385 11 16 11C18.7615 11 21 13.2385 21 16Z" fill="#333333"/>
<path d="M10.35 8.93011C10.1626 8.74386 9.90914 8.63928 9.64495 8.63928C9.38077 8.63928 9.12735 8.74387 8.93994 8.93011C7.06525 10.8054 6.01221 13.3485 6.01221 16C6.01221 18.6514 7.06533 21.1946 8.93994 23.0698C9.12619 23.2546 9.37765 23.3587 9.63994 23.3598C9.90577 23.3614 10.1612 23.257 10.3499 23.0698C10.5392 22.882 10.6458 22.6265 10.6458 22.3598C10.6458 22.0932 10.5392 21.8377 10.3499 21.6498C8.85381 20.1502 8.0137 18.1181 8.0137 15.9997C8.0137 13.8813 8.85381 11.8493 10.3499 10.3496C10.5392 10.1618 10.6458 9.90624 10.6458 9.63958C10.6458 9.37291 10.5392 9.11739 10.3499 8.92958L10.35 8.93011Z" fill="#333333"/>
<path d="M23.0601 8.93011C22.8727 8.74386 22.6193 8.63928 22.3551 8.63928C22.0909 8.63928 21.8375 8.74387 21.6501 8.93011C21.4608 9.11792 21.3542 9.37344 21.3542 9.64011C21.3542 9.90678 21.4608 10.1623 21.6501 10.3501C23.1462 11.8498 23.9863 13.8818 23.9863 16.0002C23.9863 18.1186 23.1462 20.1506 21.6501 21.6504C21.4608 21.8382 21.3542 22.0937 21.3542 22.3604C21.3542 22.627 21.4608 22.8826 21.6501 23.0704C21.8388 23.2576 22.0942 23.362 22.3601 23.3604C22.6224 23.3592 22.8738 23.2552 23.0601 23.0704C24.9348 21.1951 25.9878 18.652 25.9878 16.0005C25.9878 13.349 24.9347 10.8058 23.0601 8.93064L23.0601 8.93011Z" fill="#333333"/>
<path d="M4.00006 16C3.99652 14.424 4.30579 12.863 4.91006 11.4072C5.51433 9.95159 6.40142 8.63042 7.52006 7.52002C7.77371 7.26637 7.87278 6.89669 7.77996 6.55013C7.68714 6.20367 7.41641 5.93293 7.06996 5.84013C6.7234 5.74731 6.35372 5.84638 6.10006 6.10002C4.36214 7.83773 3.11233 10.0024 2.47606 12.3763C1.84001 14.7502 1.84001 17.2496 2.47606 19.6235C3.1122 21.9974 4.36212 24.1622 6.10006 25.8998C6.28788 26.089 6.5434 26.1956 6.81006 26.1956C7.07673 26.1956 7.33225 26.089 7.52006 25.8998C7.70934 25.7119 7.8159 25.4564 7.8159 25.1898C7.8159 24.9231 7.70934 24.6676 7.52006 24.4798C6.40142 23.3694 5.51433 22.0482 4.91006 20.5926C4.3058 19.1369 3.99652 17.5758 4.00006 15.9998L4.00006 16Z" fill="#333333"/>
<path d="M25.8999 6.10003C25.6463 5.84638 25.2766 5.74731 24.93 5.84013C24.5836 5.93294 24.3128 6.20368 24.22 6.55013C24.1272 6.89669 24.2263 7.26637 24.4799 7.52002C25.9753 9.01024 27.0511 10.8686 27.5986 12.9075C28.1462 14.9463 28.1462 17.0936 27.5986 19.1326C27.051 21.1715 25.9753 23.0299 24.4799 24.52C24.2906 24.7078 24.1841 24.9634 24.1841 25.23C24.1841 25.4967 24.2906 25.7522 24.4799 25.94C24.6677 26.1293 24.9233 26.2359 25.1899 26.2359C25.4566 26.2359 25.7121 26.1293 25.8999 25.94C27.6378 24.2023 28.8877 22.0376 29.5239 19.6638C30.16 17.2899 30.16 14.7904 29.5239 12.4166C28.8878 10.0426 27.6379 7.87789 25.8999 6.14029L25.8999 6.10003Z" fill="#333333"/>
</svg>
